<svg xmlns="http://www.w3.org/2000/svg" viewBox="0 0 190 100" aria-hidden="true">
  <rect width="190" height="7.692" y="0" fill="#B22234"/>
  <rect width="190" height="7.692" y="7.692" fill="#fff"/>
  <rect width="190" height="7.692" y="15.385" fill="#B22234"/>
  <rect width="190" height="7.692" y="23.077" fill="#fff"/>
  <rect width="190" height="7.692" y="30.769" fill="#B22234"/>
  <rect width="190" height="7.692" y="38.462" fill="#fff"/>
  <rect width="190" height="7.692" y="46.154" fill="#B22234"/>
  <rect width="190" height="7.692" y="53.846" fill="#fff"/>
  <rect width="190" height="7.692" y="61.538" fill="#B22234"/>
  <rect width="190" height="7.692" y="69.231" fill="#fff"/>
  <rect width="190" height="7.692" y="76.923" fill="#B22234"/>
  <rect width="190" height="7.692" y="84.615" fill="#fff"/>
  <rect width="190" height="7.692" y="92.308" fill="#B22234"/>
  <rect width="76" height="53.846" fill="#3C3B6E"/>
  <g fill="#fff">
    <circle cx="12" cy="10" r="2.2"/>
    <circle cx="28" cy="10" r="2.2"/>
    <circle cx="44" cy="10" r="2.2"/>
    <circle cx="60" cy="10" r="2.2"/>
    <circle cx="20" cy="22" r="2.2"/>
    <circle cx="36" cy="22" r="2.2"/>
    <circle cx="52" cy="22" r="2.2"/>
    <circle cx="12" cy="34" r="2.2"/>
    <circle cx="28" cy="34" r="2.2"/>
    <circle cx="44" cy="34" r="2.2"/>
    <circle cx="60" cy="34" r="2.2"/>
    <circle cx="20" cy="46" r="2.2"/>
    <circle cx="36" cy="46" r="2.2"/>
    <circle cx="52" cy="46" r="2.2"/>
  </g>
</svg>
